<svg xmlns="http://www.w3.org/2000/svg" version="1.1" xmlns:xlink="http://www.w3.org/1999/xlink" xmlns:svgjs="http://svgjs.dev/svgjs" width="1000" height="999" viewBox="0 0 1000 999"><g transform="matrix(1,0,0,1,-0.215743440233382,-0.21552769679306039)"><svg viewBox="0 0 343 343" data-background-color="#ffffff" preserveAspectRatio="xMidYMid meet" height="999" width="1000" xmlns="http://www.w3.org/2000/svg" xmlns:xlink="http://www.w3.org/1999/xlink"><g id="tight-bounds" transform="matrix(1,0,0,1,0.0740000000000407,0.07400000000001228)"><svg viewBox="0 0 342.85155851775386 342.85155851775386" height="342.85155851775386" width="342.85155851775386"><g><svg></svg></g><g><svg viewBox="0 0 342.85155851775386 342.85155851775386" height="342.85155851775386" width="342.85155851775386"><g><path d="M0 171.426c0-94.676 76.75-171.426 171.426-171.426 94.676 0 171.426 76.75 171.426 171.426 0 94.676-76.75 171.426-171.426 171.426-94.676 0-171.426-76.75-171.426-171.426zM171.426 331.002c88.132 0 159.576-71.445 159.576-159.576 0-88.132-71.445-159.576-159.576-159.577-88.132 0-159.576 71.445-159.577 159.577 0 88.132 71.445 159.576 159.577 159.576z" data-fill-palette-color="tertiary" fill="#000000" stroke="transparent"></path><ellipse rx="164.56874808852186" ry="164.56874808852186" cx="171.42577925887693" cy="171.42577925887693" fill="#000000" stroke="transparent" stroke-width="0" fill-opacity="1" data-fill-palette-color="tertiary"></ellipse></g><g transform="matrix(1,0,0,1,64.84655864529837,105.7274959339953)"><svg viewBox="0 0 213.1584412271571 131.39656664976326" height="131.39656664976326" width="213.1584412271571"><g><svg viewBox="0 0 213.1584412271571 131.39656664976326" height="131.39656664976326" width="213.1584412271571"><g><svg viewBox="0 0 213.1584412271571 131.39656664976326" height="131.39656664976326" width="213.1584412271571"><g id="textblocktransform"><svg viewBox="0 0 213.1584412271571 131.39656664976326" height="131.39656664976326" width="213.1584412271571" id="textblock"><g><svg viewBox="0 0 213.1584412271571 131.39656664976326" height="131.39656664976326" width="213.1584412271571"><g transform="matrix(1,0,0,1,0,0)"><svg width="213.1584412271571" viewBox="1.9500000476837158 -35.70000076293945 59.04999923706055 36.400001525878906" height="131.39656664976326" data-palette-color="#ffffff"><path d="M19.1 0.7L19.1 0.7Q14.25 0.7 10.36-1.54 6.48-3.78 4.21-7.88 1.95-11.98 1.95-17.55L1.95-17.55Q1.95-23.08 4.29-27.15 6.63-31.23 10.71-33.46 14.8-35.7 20.05-35.7L20.05-35.7Q22.88-35.7 25.44-35.11 28-34.52 29.9-33.7L29.9-33.7 29.45-29.55Q27.4-30.35 25.1-30.88 22.8-31.4 20.2-31.4L20.2-31.4Q15.73-31.4 12.84-29.54 9.95-27.68 8.55-24.53 7.15-21.38 7.15-17.5L7.15-17.5Q7.15-13.5 8.58-10.36 10-7.23 12.95-5.41 15.9-3.6 20.45-3.6L20.45-3.6Q21.58-3.6 23.25-3.8 24.93-4 26.3-4.55L26.3-4.55 26.3-13.25 20.8-13.25 20.8-17.55 31.05-17.55 31.05-1.95Q29-0.83 25.95-0.06 22.9 0.7 19.1 0.7ZM42.6 0L37.6 0 37.6-35 49.15-35Q52.67-35 55.35-33.88 58.02-32.75 59.51-30.25 61-27.75 61-23.65L61-23.65Q61-19.63 59.51-17.11 58.02-14.6 55.35-13.43 52.67-12.25 49.15-12.25L49.15-12.25 42.6-12.25 42.6 0ZM42.6-30.75L42.6-16.5 48.45-16.5Q52.27-16.5 54.19-18.24 56.1-19.98 56.1-23.6L56.1-23.6Q56.1-27.25 54.29-29 52.47-30.75 48.45-30.75L48.45-30.75 42.6-30.75Z" opacity="1" transform="matrix(1,0,0,1,0,0)" fill="#ffffff" class="wordmark-text-0" data-fill-palette-color="quaternary" id="text-0"></path></svg></g></svg></g></svg></g></svg></g><g></g></svg></g></svg></g></svg></g><defs></defs></svg><rect width="342.85155851775386" height="342.85155851775386" fill="none" stroke="none" visibility="hidden"></rect></g></svg></g></svg>